<svg version="1" width="88px" height="31px" viewBox="0 0 88 31" xmlns="http://www.w3.org/2000/svg" xmlns:bx="https://boxy-svg.com">
  <defs>
    <linearGradient id="gradient-2" bx:pinned="true">
      <stop offset="0" style="stop-color: rgb(0, 179, 255);"></stop>
      <stop offset="0.329" style="stop-color: rgb(0, 179, 254);"></stop>
      <stop offset="0.33" style="stop-color: rgb(38, 234, 226);"></stop>
      <stop offset="0.6600000262260437" style="stop-color: rgb(38, 234, 226);"></stop>
      <stop offset="0.661" style="stop-color: rgb(26, 234, 189);"></stop>
      <stop offset="1" style="stop-color: rgb(26, 234, 189);"></stop>
    </linearGradient>
    <style bx:fonts="Manrope">@import url(https://fonts.googleapis.com/css2?family=Manrope%3Aital%2Cwght%400%2C200%3B0%2C300%3B0%2C400%3B0%2C500%3B0%2C600%3B0%2C700%3B0%2C800&amp;display=swap);</style>
  </defs>
  <rect width="88" height="31" style="stroke: rgb(0, 0, 0); fill: rgb(57, 57, 57); stroke-width: 0px;"></rect>
  <rect y="0.076" width="88" height="13.16" style="stroke: rgb(0, 0, 0); stroke-width: 0px; fill: rgb(50, 50, 50);"></rect>
  <g transform="matrix(0.146667, 0, 0, 0.146825, 0.131798, 12.975322)">
    <path d="M 159.568 34.427 C 150.678 34.413 143.301 36.236 140.448 37.23 L 137.511 53.087 C 137.504 53.145 152.128 49.187 158.57 49.42 C 169.235 49.803 170.216 53.496 170.03 58.48 C 170.212 58.772 167.278 53.977 158.051 53.816 C 146.411 53.616 129.982 57.938 130.005 75.508 C 129.691 95.273 144.769 101.087 155.037 101.194 C 164.269 101.026 168.6 97.698 170.971 95.914 C 174.086 92.657 177.65 89.382 181.049 85.452 C 177.833 91.296 175.044 95.336 172.142 98.429 L 172.142 101.04 L 186.175 98.679 L 186.271 60.535 C 186.128 55.136 189.367 34.478 159.568 34.427 L 159.568 34.427 Z M 157.552 67.637 C 163.369 67.717 170.04 70.585 170.049 77.486 C 170.079 83.763 162.186 87.137 157.053 87.084 C 151.918 87.031 145.104 83.048 145.074 76.929 C 145.173 71.459 151.5 67.497 157.552 67.638 L 157.552 67.637 Z M 195.524 37.952 L 195.429 101.118 L 211.777 97.968 L 211.804 62.154 C 211.808 56.821 219.424 50.59 228.982 50.69 C 231.01 47.02 234.822 37.64 235.752 35.507 C 214.401 35.456 214.129 41.644 210.416 44.687 C 210.376 38.881 210.403 35.395 210.403 35.395 L 195.524 37.952 L 195.524 37.952 Z M 287.526 46.244 C 287.368 46.17 279 36.456 262.176 36.38 C 246.418 36.118 228.743 42.227 228.46 68.65 C 228.598 91.882 245.439 100.961 262.265 101.138 C 280.272 101.325 287.437 89.878 287.867 89.595 C 285.718 87.732 277.671 79.758 277.671 79.758 C 277.671 79.758 272.644 86.915 262.892 87.006 C 253.137 87.099 244.658 79.466 244.538 68.817 C 244.413 58.167 252.333 52.398 262.965 51.932 C 272.17 51.93 277.481 57.875 277.481 57.875 L 287.526 46.244 Z M 308.132 15.845 L 292.698 19.473 L 292.813 101.75 L 308.017 99.005 L 308.189 60.285 C 308.222 56.225 314.063 49.99 323.815 50.188 C 333.14 50.285 335.225 56.403 335.199 57.176 L 335.468 102 L 350.461 99.35 L 350.518 51.82 C 350.617 47.246 340.5 37.587 324.238 37.518 C 316.509 37.53 312.229 39.28 310.051 40.57 C 306.325 43.449 302.066 46.207 297.881 49.727 C 301.75 44.757 304.998 41.32 308.171 38.766 L 308.131 15.845 L 308.132 15.845 Z" fill="#fff" fill-rule="evenodd"></path>
    <path d="M 360.136 17.218 L 367.098 15.476 L 367.428 98.426 L 360.354 99.63 L 360.136 17.218 Z M 379.064 41.975 L 385.165 39.259 L 385.217 98.737 L 379.325 99.954 L 379.064 41.975 Z M 377.614 20.527 L 382.534 16.512 L 386.62 21.059 L 381.699 25.18 L 377.614 20.527 Z M 396.638 40.892 L 403.6 39.471 L 403.633 51.905 C 403.634 52.439 407.456 38.015 425.891 38.335 C 443.791 38.435 446.718 52.292 446.621 55.399 L 446.842 99.124 L 440.74 100.448 L 440.705 57.259 C 440.775 55.998 437.915 45.332 425.266 45.293 C 412.62 45.256 403.857 54.479 403.873 60.371 L 403.973 98.418 L 396.903 100.265 L 396.638 40.892 Z M 507.592 99.438 L 500.63 100.858 L 500.597 88.425 C 500.596 87.891 496.772 102.315 478.339 101.995 C 460.439 101.895 457.512 88.038 457.609 84.931 L 457.388 41.206 L 464.785 39.712 L 464.899 82.902 C 464.902 84.082 466.315 94.998 478.964 95.037 C 491.61 95.074 500.47 87.421 500.533 75.898 L 500.443 41.822 L 507.328 40.065 L 507.592 99.438 Z M 521.237 40.401 L 516.355 44.221 L 535.072 68.715 L 515.109 97.015 L 520.288 100.858 L 539.054 74.578 L 558.422 101.48 L 563.213 97.66 L 542.456 68.895 L 559.016 45.633 L 553.924 41.328 L 538.839 62.853 L 521.237 40.401 Z M 61.88 1.778 C 56.495 14.981 53.247 23.617 47.251 36.427 C 50.927 40.323 55.439 44.861 62.767 49.986 C 54.889 46.744 49.515 43.489 45.5 40.112 C 37.827 56.123 25.805 78.93 1.41 122.762 C 20.584 111.694 35.447 104.869 49.299 102.265 C 48.673 99.573 48.368 96.816 48.389 94.052 L 48.412 93.438 C 48.716 81.154 55.106 71.708 62.676 72.348 C 70.246 72.99 76.13 83.474 75.826 95.758 C 75.768 98.07 75.507 100.294 75.052 102.356 C 88.753 105.036 103.457 111.843 122.372 122.763 C 118.642 115.897 115.313 109.707 112.134 103.813 C 107.127 99.931 101.904 94.88 91.25 89.411 C 98.573 91.314 103.816 93.51 107.903 95.963 C 75.58 35.786 72.963 27.79 61.88 1.778 Z" fill="#1793d1" fill-rule="evenodd"></path>
    <path d="M 576.771 93.265 L 576.771 80.603 L 572.041 80.603 L 572.041 78.908 L 583.421 78.908 L 583.421 80.603 L 578.671 80.603 L 578.671 93.265 L 576.771 93.265 M 585.4 93.265 L 585.4 78.908 L 588.259 78.908 L 591.657 89.074 C 591.971 90.021 592.199 90.729 592.343 91.199 C 592.506 90.677 592.761 89.909 593.107 88.898 L 596.544 78.908 L 599.1 78.908 L 599.1 93.265 L 597.269 93.265 L 597.269 81.25 L 593.097 93.266 L 591.383 93.266 L 587.231 81.044 L 587.231 93.266 L 585.399 93.266" font-weight="400" font-size="8.441" font-family="DejaVu Sans Mono" fill="gray"></path>
  </g>
  <path d="M 0.969 9.294 L 0.969 2.814 L 3.413 2.814 Q 3.507 2.814 3.617 2.821 Q 3.728 2.827 3.849 2.85 Q 4.335 2.926 4.684 3.199 Q 5.033 3.471 5.217 3.883 Q 5.402 4.294 5.402 4.789 Q 5.402 5.289 5.217 5.701 Q 5.033 6.112 4.684 6.385 Q 4.335 6.657 3.849 6.733 Q 3.728 6.751 3.617 6.76 Q 3.507 6.769 3.413 6.769 L 1.487 6.769 L 1.487 9.294 Z M 1.487 6.261 L 3.404 6.261 Q 3.485 6.261 3.59 6.252 Q 3.696 6.243 3.804 6.225 Q 4.155 6.153 4.389 5.939 Q 4.623 5.725 4.74 5.424 Q 4.857 5.122 4.857 4.789 Q 4.857 4.456 4.74 4.157 Q 4.623 3.858 4.389 3.644 Q 4.155 3.43 3.804 3.358 Q 3.696 3.336 3.59 3.327 Q 3.485 3.318 3.404 3.318 L 1.487 3.318 Z M 8.279 9.429 Q 7.555 9.429 7.051 9.1 Q 6.547 8.772 6.281 8.191 Q 6.016 7.611 6.016 6.855 Q 6.016 6.094 6.286 5.516 Q 6.556 4.938 7.062 4.618 Q 7.568 4.299 8.279 4.299 Q 9.004 4.299 9.51 4.625 Q 10.016 4.951 10.28 5.527 Q 10.543 6.103 10.543 6.855 Q 10.543 7.624 10.277 8.203 Q 10.012 8.781 9.503 9.105 Q 8.995 9.429 8.279 9.429 Z M 8.279 8.925 Q 9.139 8.925 9.564 8.349 Q 9.989 7.773 9.989 6.855 Q 9.989 5.919 9.562 5.361 Q 9.134 4.803 8.279 4.803 Q 7.699 4.803 7.321 5.066 Q 6.943 5.329 6.756 5.791 Q 6.569 6.252 6.569 6.855 Q 6.569 7.791 7.004 8.358 Q 7.438 8.925 8.279 8.925 Z M 12.386 9.294 L 10.901 4.434 L 11.432 4.434 L 12.652 8.425 L 13.871 4.434 L 14.371 4.434 L 15.595 8.425 L 16.819 4.434 L 17.341 4.434 L 15.856 9.294 L 15.37 9.294 L 14.123 5.248 L 12.872 9.294 Z M 19.972 9.429 Q 19.275 9.429 18.766 9.116 Q 18.258 8.803 17.979 8.23 Q 17.7 7.656 17.7 6.873 Q 17.7 6.076 17.976 5.498 Q 18.253 4.92 18.759 4.609 Q 19.266 4.299 19.963 4.299 Q 20.67 4.299 21.171 4.621 Q 21.673 4.942 21.936 5.55 Q 22.2 6.157 22.186 7.012 L 21.646 7.012 L 21.646 6.832 Q 21.624 5.833 21.196 5.311 Q 20.769 4.789 19.972 4.789 Q 19.149 4.789 18.701 5.332 Q 18.253 5.874 18.253 6.864 Q 18.253 7.845 18.701 8.385 Q 19.149 8.925 19.963 8.925 Q 20.526 8.925 20.946 8.662 Q 21.367 8.398 21.615 7.908 L 22.083 8.115 Q 21.79 8.745 21.237 9.087 Q 20.683 9.429 19.972 9.429 Z M 18.055 7.012 L 18.055 6.544 L 21.894 6.544 L 21.894 7.012 Z M 23.179 9.294 L 23.179 4.434 L 23.652 4.434 L 23.652 5.599 L 23.535 5.446 Q 23.616 5.239 23.739 5.062 Q 23.863 4.884 23.994 4.771 Q 24.187 4.591 24.448 4.499 Q 24.709 4.407 24.975 4.391 Q 25.24 4.375 25.456 4.434 L 25.456 4.924 Q 25.168 4.857 24.844 4.897 Q 24.52 4.938 24.237 5.176 Q 23.989 5.392 23.877 5.678 Q 23.764 5.964 23.733 6.277 Q 23.701 6.589 23.701 6.886 L 23.701 9.294 Z M 28.222 9.429 Q 27.524 9.429 27.016 9.116 Q 26.507 8.803 26.228 8.23 Q 25.949 7.656 25.949 6.873 Q 25.949 6.076 26.226 5.498 Q 26.503 4.92 27.009 4.609 Q 27.515 4.299 28.213 4.299 Q 28.919 4.299 29.421 4.621 Q 29.923 4.942 30.186 5.55 Q 30.449 6.157 30.436 7.012 L 29.896 7.012 L 29.896 6.832 Q 29.873 5.833 29.446 5.311 Q 29.018 4.789 28.222 4.789 Q 27.398 4.789 26.951 5.332 Q 26.503 5.874 26.503 6.864 Q 26.503 7.845 26.951 8.385 Q 27.398 8.925 28.213 8.925 Q 28.775 8.925 29.196 8.662 Q 29.617 8.398 29.864 7.908 L 30.332 8.115 Q 30.04 8.745 29.486 9.087 Q 28.933 9.429 28.222 9.429 Z M 26.305 7.012 L 26.305 6.544 L 30.143 6.544 L 30.143 7.012 Z M 33.296 9.429 Q 32.608 9.429 32.133 9.089 Q 31.658 8.749 31.408 8.167 Q 31.159 7.584 31.159 6.855 Q 31.159 6.135 31.406 5.554 Q 31.654 4.974 32.119 4.636 Q 32.585 4.299 33.247 4.299 Q 33.926 4.299 34.394 4.632 Q 34.862 4.965 35.101 5.543 Q 35.339 6.121 35.339 6.855 Q 35.339 7.584 35.101 8.164 Q 34.862 8.745 34.408 9.087 Q 33.953 9.429 33.296 9.429 Z M 33.328 8.934 Q 33.872 8.934 34.234 8.662 Q 34.597 8.389 34.774 7.919 Q 34.952 7.449 34.952 6.855 Q 34.952 6.256 34.772 5.788 Q 34.592 5.32 34.232 5.057 Q 33.872 4.794 33.337 4.794 Q 32.783 4.794 32.423 5.066 Q 32.063 5.338 31.888 5.804 Q 31.712 6.27 31.712 6.855 Q 31.712 7.444 31.894 7.915 Q 32.077 8.385 32.434 8.659 Q 32.792 8.934 33.328 8.934 Z M 34.952 9.294 L 34.952 5.55 L 34.907 5.55 L 34.907 2.814 L 35.425 2.814 L 35.425 9.294 Z M 38.483 9.294 L 38.483 2.814 L 40.962 2.814 Q 41.466 2.814 41.869 3.028 Q 42.272 3.241 42.503 3.61 Q 42.735 3.979 42.735 4.443 Q 42.735 4.965 42.447 5.381 Q 42.159 5.797 41.682 5.964 L 41.664 5.748 Q 42.303 5.941 42.679 6.394 Q 43.055 6.846 43.055 7.512 Q 43.055 8.07 42.809 8.468 Q 42.564 8.866 42.132 9.08 Q 41.7 9.294 41.151 9.294 Z M 39.005 8.785 L 40.98 8.785 Q 41.412 8.785 41.756 8.637 Q 42.101 8.488 42.301 8.209 Q 42.501 7.93 42.501 7.534 Q 42.501 7.143 42.319 6.826 Q 42.137 6.508 41.826 6.322 Q 41.516 6.135 41.129 6.135 L 39.005 6.135 Z M 39.005 5.635 L 40.958 5.635 Q 41.295 5.635 41.576 5.478 Q 41.858 5.32 42.024 5.048 Q 42.191 4.776 42.191 4.425 Q 42.191 3.925 41.837 3.619 Q 41.484 3.313 40.958 3.313 L 39.005 3.313 Z M 44.656 11.454 L 45.601 8.911 L 45.61 9.667 L 43.482 4.434 L 44.035 4.434 L 45.862 8.979 L 45.574 8.979 L 47.235 4.434 L 47.779 4.434 L 45.196 11.454 Z" style="fill: rgb(255, 255, 255); white-space: pre;"></path>
</svg>