<?xml version="1.0" encoding="utf-8"?>
<svg viewBox="0 0 23 25" xmlns="http://www.w3.org/2000/svg">
  <g transform="matrix(1, 0, 0, 1, -6, -2)" shape-rendering="crispEdges">
    <path d="M 6 3 H 7 V 4 H 6 V 3 Z" style="fill: #131114;"/>
    <path d="M 6 4 H 7 V 5 H 6 V 4 Z" style="fill: #131114;"/>
    <path d="M 7 2 H 8 V 3 H 7 V 2 Z" style="fill: #131114;"/>
    <path d="M 7 3 H 8 V 4 H 7 V 3 Z" style="fill: #252426;"/>
    <path d="M 7 4 H 8 V 5 H 7 V 4 Z" style="fill: #252426;"/>
    <path d="M 7 5 H 8 V 6 H 7 V 5 Z" style="fill: #131114;"/>
    <path d="M 7 6 H 8 V 7 H 7 V 6 Z" style="fill: #131114;"/>
    <path d="M 7 7 H 8 V 8 H 7 V 7 Z" style="fill: #131114;"/>
    <path d="M 7 8 H 8 V 9 H 7 V 8 Z" style="fill: #131114;"/>
    <path d="M 7 9 H 8 V 10 H 7 V 9 Z" style="fill: #131114;"/>
    <path d="M 8 2 H 9 V 3 H 8 V 2 Z" style="fill: #131114;"/>
    <path d="M 8 3 H 9 V 4 H 8 V 3 Z" style="fill: #252426;"/>
    <path d="M 8 4 H 9 V 5 H 8 V 4 Z" style="fill: #252426;"/>
    <path d="M 8 5 H 9 V 6 H 8 V 5 Z" style="fill: #252426;"/>
    <path d="M 8 6 H 9 V 7 H 8 V 6 Z" style="fill: #e28323;"/>
    <path d="M 8 7 H 9 V 8 H 8 V 7 Z" style="fill: #e28323;"/>
    <path d="M 8 8 H 9 V 9 H 8 V 8 Z" style="fill: #e28323;"/>
    <path d="M 8 9 H 9 V 10 H 8 V 9 Z" style="fill: #e28323;"/>
    <path d="M 8 10 H 9 V 11 H 8 V 10 Z" style="fill: #131114;"/>
    <path d="M 8 11 H 9 V 12 H 8 V 11 Z" style="fill: #131114;"/>
    <path d="M 8 12 H 9 V 13 H 8 V 12 Z" style="fill: #131114;"/>
    <path d="M 8 13 H 9 V 14 H 8 V 13 Z" style="fill: #131114;"/>
    <path d="M 8 14 H 9 V 15 H 8 V 14 Z" style="fill: #131114;"/>
    <path d="M 8 15 H 9 V 16 H 8 V 15 Z" style="fill: #131114;"/>
    <path d="M 9 3 H 10 V 4 H 9 V 3 Z" style="fill: #131114;"/>
    <path d="M 9 4 H 10 V 5 H 9 V 4 Z" style="fill: #252426;"/>
    <path d="M 9 5 H 10 V 6 H 9 V 5 Z" style="fill: #e28323;"/>
    <path d="M 9 6 H 10 V 7 H 9 V 6 Z" style="fill: #e28323;"/>
    <path d="M 9 7 H 10 V 8 H 9 V 7 Z" style="fill: #131114;"/>
    <path d="M 9 8 H 10 V 9 H 9 V 8 Z" style="fill: #131114;"/>
    <path d="M 9 9 H 10 V 10 H 9 V 9 Z" style="fill: #e28323;"/>
    <path d="M 9 10 H 10 V 11 H 9 V 10 Z" style="fill: #131210;"/>
    <path d="M 9 11 H 10 V 12 H 9 V 11 Z" style="fill: #131210;"/>
    <path d="M 9 12 H 10 V 13 H 9 V 12 Z" style="fill: #ecceb1;"/>
    <path d="M 9 13 H 10 V 14 H 9 V 13 Z" style="fill: #ecceb1;"/>
    <path d="M 9 14 H 10 V 15 H 9 V 14 Z" style="fill: #ecceb1;"/>
    <path d="M 9 15 H 10 V 16 H 9 V 15 Z" style="fill: #ecceb1;"/>
    <path d="M 9 16 H 10 V 17 H 9 V 16 Z" style="fill: #131114;"/>
    <path d="M 9 17 H 10 V 18 H 9 V 17 Z" style="fill: #131114;"/>
    <path d="M 9 18 H 10 V 19 H 9 V 18 Z" style="fill: #131114;"/>
    <path d="M 9 23 H 10 V 24 H 9 V 23 Z" style="fill: #131114;"/>
    <path d="M 9 24 H 10 V 25 H 9 V 24 Z" style="fill: #131114;"/>
    <path d="M 10 4 H 11 V 5 H 10 V 4 Z" style="fill: #131114;"/>
    <path d="M 10 5 H 11 V 6 H 10 V 5 Z" style="fill: #e28323;"/>
    <path d="M 10 6 H 11 V 7 H 10 V 6 Z" style="fill: #e28323;"/>
    <path d="M 10 7 H 11 V 8 H 10 V 7 Z" style="fill: #e28323;"/>
    <path d="M 10 8 H 11 V 9 H 10 V 8 Z" style="fill: #e28323;"/>
    <path d="M 10 9 H 11 V 10 H 10 V 9 Z" style="fill: #e28323;"/>
    <path d="M 10 10 H 11 V 11 H 10 V 10 Z" style="fill: #f0dac6;"/>
    <path d="M 10 11 H 11 V 12 H 10 V 11 Z" style="fill: #131210;"/>
    <path d="M 10 12 H 11 V 13 H 10 V 12 Z" style="fill: #f0dac6;"/>
    <path d="M 10 13 H 11 V 14 H 10 V 13 Z" style="fill: #ecceb1;"/>
    <path d="M 10 14 H 11 V 15 H 10 V 14 Z" style="fill: #ecceb1;"/>
    <path d="M 10 15 H 11 V 16 H 10 V 15 Z" style="fill: #ecceb1;"/>
    <path d="M 10 16 H 11 V 17 H 10 V 16 Z" style="fill: #ecceb1;"/>
    <path d="M 10 17 H 11 V 18 H 10 V 17 Z" style="fill: #ecceb1;"/>
    <path d="M 10 18 H 11 V 19 H 10 V 18 Z" style="fill: #9c4818;"/>
    <path d="M 10 19 H 11 V 20 H 10 V 19 Z" style="fill: #131114;"/>
    <path d="M 10 20 H 11 V 21 H 10 V 20 Z" style="fill: #131114;"/>
    <path d="M 10 21 H 11 V 22 H 10 V 21 Z" style="fill: #131114;"/>
    <path d="M 10 22 H 11 V 23 H 10 V 22 Z" style="fill: #131114;"/>
    <path d="M 10 23 H 11 V 24 H 10 V 23 Z" style="fill: #252426;"/>
    <path d="M 10 24 H 11 V 25 H 10 V 24 Z" style="fill: #252426;"/>
    <path d="M 10 25 H 11 V 26 H 10 V 25 Z" style="fill: #131114;"/>
    <path d="M 11 3 H 12 V 4 H 11 V 3 Z" style="fill: #131114;"/>
    <path d="M 11 4 H 12 V 5 H 11 V 4 Z" style="fill: #131114;"/>
    <path d="M 11 5 H 12 V 6 H 11 V 5 Z" style="fill: #e28323;"/>
    <path d="M 11 6 H 12 V 7 H 11 V 6 Z" style="fill: #e28323;"/>
    <path d="M 11 7 H 12 V 8 H 11 V 7 Z" style="fill: #e28323;"/>
    <path d="M 11 8 H 12 V 9 H 11 V 8 Z" style="fill: #e28323;"/>
    <path d="M 11 9 H 12 V 10 H 11 V 9 Z" style="fill: #e28323;"/>
    <path d="M 11 10 H 12 V 11 H 11 V 10 Z" style="fill: #f0dac6;"/>
    <path d="M 11 11 H 12 V 12 H 11 V 11 Z" style="fill: #f0dac6;"/>
    <path d="M 11 12 H 12 V 13 H 11 V 12 Z" style="fill: #f0dac6;"/>
    <path d="M 11 13 H 12 V 14 H 11 V 13 Z" style="fill: #ecceb1;"/>
    <path d="M 11 14 H 12 V 15 H 11 V 14 Z" style="fill: #ecceb1;"/>
    <path d="M 11 15 H 12 V 16 H 11 V 15 Z" style="fill: #ecceb1;"/>
    <path d="M 11 16 H 12 V 17 H 11 V 16 Z" style="fill: #ecceb1;"/>
    <path d="M 11 17 H 12 V 18 H 11 V 17 Z" style="fill: #ecceb1;"/>
    <path d="M 11 18 H 12 V 19 H 11 V 18 Z" style="fill: #252426;"/>
    <path d="M 11 19 H 12 V 20 H 11 V 19 Z" style="fill: #252426;"/>
    <path d="M 11 20 H 12 V 21 H 11 V 20 Z" style="fill: #252426;"/>
    <path d="M 11 21 H 12 V 22 H 11 V 21 Z" style="fill: #252426;"/>
    <path d="M 11 22 H 12 V 23 H 11 V 22 Z" style="fill: #252426;"/>
    <path d="M 11 23 H 12 V 24 H 11 V 23 Z" style="fill: #252426;"/>
    <path d="M 11 24 H 12 V 25 H 11 V 24 Z" style="fill: #252426;"/>
    <path d="M 11 25 H 12 V 26 H 11 V 25 Z" style="fill: #131114;"/>
    <path d="M 12 2 H 13 V 3 H 12 V 2 Z" style="fill: #131114;"/>
    <path d="M 12 3 H 13 V 4 H 12 V 3 Z" style="fill: #252426;"/>
    <path d="M 12 4 H 13 V 5 H 12 V 4 Z" style="fill: #252426;"/>
    <path d="M 12 5 H 13 V 6 H 12 V 5 Z" style="fill: #e28323;"/>
    <path d="M 12 6 H 13 V 7 H 12 V 6 Z" style="fill: #e28323;"/>
    <path d="M 12 7 H 13 V 8 H 12 V 7 Z" style="fill: #131114;"/>
    <path d="M 12 8 H 13 V 9 H 12 V 8 Z" style="fill: #131114;"/>
    <path d="M 12 9 H 13 V 10 H 12 V 9 Z" style="fill: #e28323;"/>
    <path d="M 12 10 H 13 V 11 H 12 V 10 Z" style="fill: #f0dac6;"/>
    <path d="M 12 11 H 13 V 12 H 12 V 11 Z" style="fill: #f0dac6;"/>
    <path d="M 12 12 H 13 V 13 H 12 V 12 Z" style="fill: #f0dac6;"/>
    <path d="M 12 13 H 13 V 14 H 12 V 13 Z" style="fill: #ecceb1;"/>
    <path d="M 12 14 H 13 V 15 H 12 V 14 Z" style="fill: #ecceb1;"/>
    <path d="M 12 15 H 13 V 16 H 12 V 15 Z" style="fill: #ecceb1;"/>
    <path d="M 12 16 H 13 V 17 H 12 V 16 Z" style="fill: #ecceb1;"/>
    <path d="M 12 17 H 13 V 18 H 12 V 17 Z" style="fill: #ecceb1;"/>
    <path d="M 12 18 H 13 V 19 H 12 V 18 Z" style="fill: #ecceb1;"/>
    <path d="M 12 19 H 13 V 20 H 12 V 19 Z" style="fill: #252426;"/>
    <path d="M 12 20 H 13 V 21 H 12 V 20 Z" style="fill: #252426;"/>
    <path d="M 12 21 H 13 V 22 H 12 V 21 Z" style="fill: #252426;"/>
    <path d="M 12 22 H 13 V 23 H 12 V 22 Z" style="fill: #252426;"/>
    <path d="M 12 23 H 13 V 24 H 12 V 23 Z" style="fill: #252426;"/>
    <path d="M 12 24 H 13 V 25 H 12 V 24 Z" style="fill: #131114;"/>
    <path d="M 13 2 H 14 V 3 H 13 V 2 Z" style="fill: #131114;"/>
    <path d="M 13 3 H 14 V 4 H 13 V 3 Z" style="fill: #252426;"/>
    <path d="M 13 4 H 14 V 5 H 13 V 4 Z" style="fill: #252426;"/>
    <path d="M 13 5 H 14 V 6 H 13 V 5 Z" style="fill: #252426;"/>
    <path d="M 13 6 H 14 V 7 H 13 V 6 Z" style="fill: #e28323;"/>
    <path d="M 13 7 H 14 V 8 H 13 V 7 Z" style="fill: #e28323;"/>
    <path d="M 13 8 H 14 V 9 H 13 V 8 Z" style="fill: #e28323;"/>
    <path d="M 13 9 H 14 V 10 H 13 V 9 Z" style="fill: #e28323;"/>
    <path d="M 13 10 H 14 V 11 H 13 V 10 Z" style="fill: #f0dac6;"/>
    <path d="M 13 11 H 14 V 12 H 13 V 11 Z" style="fill: #f0dac6;"/>
    <path d="M 13 12 H 14 V 13 H 13 V 12 Z" style="fill: #ecceb1;"/>
    <path d="M 13 13 H 14 V 14 H 13 V 13 Z" style="fill: #ecceb1;"/>
    <path d="M 13 14 H 14 V 15 H 13 V 14 Z" style="fill: #ecceb1;"/>
    <path d="M 13 15 H 14 V 16 H 13 V 15 Z" style="fill: #ecceb1;"/>
    <path d="M 13 16 H 14 V 17 H 13 V 16 Z" style="fill: #ecceb1;"/>
    <path d="M 13 17 H 14 V 18 H 13 V 17 Z" style="fill: #ecceb1;"/>
    <path d="M 13 18 H 14 V 19 H 13 V 18 Z" style="fill: #9c4818;"/>
    <path d="M 13 19 H 14 V 20 H 13 V 19 Z" style="fill: #9c4818;"/>
    <path d="M 13 20 H 14 V 21 H 13 V 20 Z" style="fill: #9c4818;"/>
    <path d="M 13 21 H 14 V 22 H 13 V 21 Z" style="fill: #9c4818;"/>
    <path d="M 13 22 H 14 V 23 H 13 V 22 Z" style="fill: #131114;"/>
    <path d="M 13 23 H 14 V 24 H 13 V 23 Z" style="fill: #131114;"/>
    <path d="M 13 24 H 14 V 25 H 13 V 24 Z" style="fill: #131114;"/>
    <path d="M 13 25 H 14 V 26 H 13 V 25 Z" style="fill: #131114;"/>
    <path d="M 14 3 H 15 V 4 H 14 V 3 Z" style="fill: #131114;"/>
    <path d="M 14 4 H 15 V 5 H 14 V 4 Z" style="fill: #252426;"/>
    <path d="M 14 5 H 15 V 6 H 14 V 5 Z" style="fill: #252426;"/>
    <path d="M 14 6 H 15 V 7 H 14 V 6 Z" style="fill: #e28323;"/>
    <path d="M 14 7 H 15 V 8 H 14 V 7 Z" style="fill: #e28323;"/>
    <path d="M 14 8 H 15 V 9 H 14 V 8 Z" style="fill: #e28323;"/>
    <path d="M 14 9 H 15 V 10 H 14 V 9 Z" style="fill: #e28323;"/>
    <path d="M 14 10 H 15 V 11 H 14 V 10 Z" style="fill: #ecceb1;"/>
    <path d="M 14 11 H 15 V 12 H 14 V 11 Z" style="fill: #ecceb1;"/>
    <path d="M 14 12 H 15 V 13 H 14 V 12 Z" style="fill: #e28323;"/>
    <path d="M 14 13 H 15 V 14 H 14 V 13 Z" style="fill: #ecceb1;"/>
    <path d="M 14 14 H 15 V 15 H 14 V 14 Z" style="fill: #ecceb1;"/>
    <path d="M 14 15 H 15 V 16 H 14 V 15 Z" style="fill: #dc802e;"/>
    <path d="M 14 16 H 15 V 17 H 14 V 16 Z" style="fill: #ecceb1;"/>
    <path d="M 14 17 H 15 V 18 H 14 V 17 Z" style="fill: #ecceb1;"/>
    <path d="M 14 18 H 15 V 19 H 14 V 18 Z" style="fill: #dc802e;"/>
    <path d="M 14 19 H 15 V 20 H 14 V 19 Z" style="fill: #9c4818;"/>
    <path d="M 14 20 H 15 V 21 H 14 V 20 Z" style="fill: #9c4818;"/>
    <path d="M 14 21 H 15 V 22 H 14 V 21 Z" style="fill: #131114;"/>
    <path d="M 14 22 H 15 V 23 H 14 V 22 Z" style="fill: #131114;"/>
    <path d="M 14 23 H 15 V 24 H 14 V 23 Z" style="fill: #131114;"/>
    <path d="M 14 24 H 15 V 25 H 14 V 24 Z" style="fill: #252426;"/>
    <path d="M 14 25 H 15 V 26 H 14 V 25 Z" style="fill: #252426;"/>
    <path d="M 14 26 H 15 V 27 H 14 V 26 Z" style="fill: #131114;"/>
    <path d="M 15 4 H 16 V 5 H 15 V 4 Z" style="fill: #131114;"/>
    <path d="M 15 5 H 16 V 6 H 15 V 5 Z" style="fill: #131114;"/>
    <path d="M 15 6 H 16 V 7 H 15 V 6 Z" style="fill: #131114;"/>
    <path d="M 15 7 H 16 V 8 H 15 V 7 Z" style="fill: #131114;"/>
    <path d="M 15 8 H 16 V 9 H 15 V 8 Z" style="fill: #131114;"/>
    <path d="M 15 9 H 16 V 10 H 15 V 9 Z" style="fill: #e28323;"/>
    <path d="M 15 10 H 16 V 11 H 15 V 10 Z" style="fill: #e28323;"/>
    <path d="M 15 11 H 16 V 12 H 15 V 11 Z" style="fill: #e28323;"/>
    <path d="M 15 12 H 16 V 13 H 15 V 12 Z" style="fill: #efa24d;"/>
    <path d="M 15 13 H 16 V 14 H 15 V 13 Z" style="fill: #ecceb1;"/>
    <path d="M 15 14 H 16 V 15 H 15 V 14 Z" style="fill: #ecceb1;"/>
    <path d="M 15 15 H 16 V 16 H 15 V 15 Z" style="fill: #dc802e;"/>
    <path d="M 15 16 H 16 V 17 H 15 V 16 Z" style="fill: #dc802e;"/>
    <path d="M 15 17 H 16 V 18 H 15 V 17 Z" style="fill: #dc802e;"/>
    <path d="M 15 18 H 16 V 19 H 15 V 18 Z" style="fill: #dc802e;"/>
    <path d="M 15 19 H 16 V 20 H 15 V 19 Z" style="fill: #252426;"/>
    <path d="M 15 20 H 16 V 21 H 15 V 20 Z" style="fill: #252426;"/>
    <path d="M 15 21 H 16 V 22 H 15 V 21 Z" style="fill: #252426;"/>
    <path d="M 15 22 H 16 V 23 H 15 V 22 Z" style="fill: #252426;"/>
    <path d="M 15 23 H 16 V 24 H 15 V 23 Z" style="fill: #252426;"/>
    <path d="M 15 24 H 16 V 25 H 15 V 24 Z" style="fill: #252426;"/>
    <path d="M 15 25 H 16 V 26 H 15 V 25 Z" style="fill: #252426;"/>
    <path d="M 15 26 H 16 V 27 H 15 V 26 Z" style="fill: #131114;"/>
    <path d="M 16 9 H 17 V 10 H 16 V 9 Z" style="fill: #131114;"/>
    <path d="M 16 10 H 17 V 11 H 16 V 10 Z" style="fill: #e28323;"/>
    <path d="M 16 11 H 17 V 12 H 16 V 11 Z" style="fill: #efa24d;"/>
    <path d="M 16 12 H 17 V 13 H 16 V 12 Z" style="fill: #e28323;"/>
    <path d="M 16 13 H 17 V 14 H 16 V 13 Z" style="fill: #efa24d;"/>
    <path d="M 16 14 H 17 V 15 H 16 V 14 Z" style="fill: #dc802e;"/>
    <path d="M 16 15 H 17 V 16 H 16 V 15 Z" style="fill: #dc802e;"/>
    <path d="M 16 16 H 17 V 17 H 16 V 16 Z" style="fill: #dc802e;"/>
    <path d="M 16 17 H 17 V 18 H 16 V 17 Z" style="fill: #dc802e;"/>
    <path d="M 16 18 H 17 V 19 H 16 V 18 Z" style="fill: #dc802e;"/>
    <path d="M 16 19 H 17 V 20 H 16 V 19 Z" style="fill: #252426;"/>
    <path d="M 16 20 H 17 V 21 H 16 V 20 Z" style="fill: #252426;"/>
    <path d="M 16 21 H 17 V 22 H 16 V 21 Z" style="fill: #252426;"/>
    <path d="M 16 22 H 17 V 23 H 16 V 22 Z" style="fill: #252426;"/>
    <path d="M 16 23 H 17 V 24 H 16 V 23 Z" style="fill: #252426;"/>
    <path d="M 16 24 H 17 V 25 H 16 V 24 Z" style="fill: #252426;"/>
    <path d="M 16 25 H 17 V 26 H 16 V 25 Z" style="fill: #131114;"/>
    <path d="M 17 10 H 18 V 11 H 17 V 10 Z" style="fill: #131114;"/>
    <path d="M 17 11 H 18 V 12 H 17 V 11 Z" style="fill: #131114;"/>
    <path d="M 17 12 H 18 V 13 H 17 V 12 Z" style="fill: #efa24d;"/>
    <path d="M 17 13 H 18 V 14 H 17 V 13 Z" style="fill: #e28323;"/>
    <path d="M 17 14 H 18 V 15 H 17 V 14 Z" style="fill: #efa24d;"/>
    <path d="M 17 15 H 18 V 16 H 17 V 15 Z" style="fill: #dc802e;"/>
    <path d="M 17 16 H 18 V 17 H 17 V 16 Z" style="fill: #dc802e;"/>
    <path d="M 17 17 H 18 V 18 H 17 V 17 Z" style="fill: #dc802e;"/>
    <path d="M 17 18 H 18 V 19 H 17 V 18 Z" style="fill: #dc802e;"/>
    <path d="M 17 19 H 18 V 20 H 17 V 19 Z" style="fill: #dc802e;"/>
    <path d="M 17 20 H 18 V 21 H 17 V 20 Z" style="fill: #9c4818;"/>
    <path d="M 17 21 H 18 V 22 H 17 V 21 Z" style="fill: #9c4818;"/>
    <path d="M 17 22 H 18 V 23 H 17 V 22 Z" style="fill: #9c4818;"/>
    <path d="M 17 23 H 18 V 24 H 17 V 23 Z" style="fill: #9c4818;"/>
    <path d="M 17 24 H 18 V 25 H 17 V 24 Z" style="fill: #9c4818;"/>
    <path d="M 17 25 H 18 V 26 H 17 V 25 Z" style="fill: #131114;"/>
    <path d="M 18 12 H 19 V 13 H 18 V 12 Z" style="fill: #131114;"/>
    <path d="M 18 13 H 19 V 14 H 18 V 13 Z" style="fill: #efa24d;"/>
    <path d="M 18 14 H 19 V 15 H 18 V 14 Z" style="fill: #dc802e;"/>
    <path d="M 18 15 H 19 V 16 H 18 V 15 Z" style="fill: #efa24d;"/>
    <path d="M 18 16 H 19 V 17 H 18 V 16 Z" style="fill: #dc802e;"/>
    <path d="M 18 17 H 19 V 18 H 18 V 17 Z" style="fill: #dc802e;"/>
    <path d="M 18 18 H 19 V 19 H 18 V 18 Z" style="fill: #dc802e;"/>
    <path d="M 18 19 H 19 V 20 H 18 V 19 Z" style="fill: #dc802e;"/>
    <path d="M 18 20 H 19 V 21 H 18 V 20 Z" style="fill: #dc802e;"/>
    <path d="M 18 21 H 19 V 22 H 18 V 21 Z" style="fill: #9c4818;"/>
    <path d="M 18 22 H 19 V 23 H 18 V 22 Z" style="fill: #dc802e;"/>
    <path d="M 18 23 H 19 V 24 H 18 V 23 Z" style="fill: #9c4818;"/>
    <path d="M 18 24 H 19 V 25 H 18 V 24 Z" style="fill: #131114;"/>
    <path d="M 19 12 H 20 V 13 H 19 V 12 Z" style="fill: #131114;"/>
    <path d="M 19 13 H 20 V 14 H 19 V 13 Z" style="fill: #dc802e;"/>
    <path d="M 19 14 H 20 V 15 H 19 V 14 Z" style="fill: #efa24d;"/>
    <path d="M 19 15 H 20 V 16 H 19 V 15 Z" style="fill: #dc802e;"/>
    <path d="M 19 16 H 20 V 17 H 19 V 16 Z" style="fill: #efa24d;"/>
    <path d="M 19 17 H 20 V 18 H 19 V 17 Z" style="fill: #dc802e;"/>
    <path d="M 19 18 H 20 V 19 H 19 V 18 Z" style="fill: #dc802e;"/>
    <path d="M 19 19 H 20 V 20 H 19 V 19 Z" style="fill: #dc802e;"/>
    <path d="M 19 20 H 20 V 21 H 19 V 20 Z" style="fill: #9c4818;"/>
    <path d="M 19 21 H 20 V 22 H 19 V 21 Z" style="fill: #dc802e;"/>
    <path d="M 19 22 H 20 V 23 H 19 V 22 Z" style="fill: #9c4818;"/>
    <path d="M 19 23 H 20 V 24 H 19 V 23 Z" style="fill: #dc802e;"/>
    <path d="M 19 24 H 20 V 25 H 19 V 24 Z" style="fill: #131114;"/>
    <path d="M 20 13 H 21 V 14 H 20 V 13 Z" style="fill: #131114;"/>
    <path d="M 20 14 H 21 V 15 H 20 V 14 Z" style="fill: #131114;"/>
    <path d="M 20 15 H 21 V 16 H 20 V 15 Z" style="fill: #efa24d;"/>
    <path d="M 20 16 H 21 V 17 H 20 V 16 Z" style="fill: #dc802e;"/>
    <path d="M 20 17 H 21 V 18 H 20 V 17 Z" style="fill: #efa24d;"/>
    <path d="M 20 18 H 21 V 19 H 20 V 18 Z" style="fill: #dc802e;"/>
    <path d="M 20 19 H 21 V 20 H 20 V 19 Z" style="fill: #dc802e;"/>
    <path d="M 20 20 H 21 V 21 H 20 V 20 Z" style="fill: #dc802e;"/>
    <path d="M 20 21 H 21 V 22 H 20 V 21 Z" style="fill: #dc802e;"/>
    <path d="M 20 22 H 21 V 23 H 20 V 22 Z" style="fill: #dc802e;"/>
    <path d="M 20 23 H 21 V 24 H 20 V 23 Z" style="fill: #dc802e;"/>
    <path d="M 20 24 H 21 V 25 H 20 V 24 Z" style="fill: #131114;"/>
    <path d="M 21 15 H 22 V 16 H 21 V 15 Z" style="fill: #131114;"/>
    <path d="M 21 16 H 22 V 17 H 21 V 16 Z" style="fill: #131114;"/>
    <path d="M 21 17 H 22 V 18 H 21 V 17 Z" style="fill: #131114;"/>
    <path d="M 21 18 H 22 V 19 H 21 V 18 Z" style="fill: #131114;"/>
    <path d="M 21 19 H 22 V 20 H 21 V 19 Z" style="fill: #131114;"/>
    <path d="M 21 20 H 22 V 21 H 21 V 20 Z" style="fill: #131114;"/>
    <path d="M 21 21 H 22 V 22 H 21 V 21 Z" style="fill: #dc802e;"/>
    <path d="M 21 22 H 22 V 23 H 21 V 22 Z" style="fill: #dc802e;"/>
    <path d="M 21 23 H 22 V 24 H 21 V 23 Z" style="fill: #dc802e;"/>
    <path d="M 21 24 H 22 V 25 H 21 V 24 Z" style="fill: #131114;"/>
    <path d="M 22 15 H 23 V 16 H 22 V 15 Z" style="fill: rgba(20,18,20,0.5);"/>
    <path d="M 22 16 H 23 V 17 H 22 V 16 Z" style="fill: rgba(20,18,20,0.5);"/>
    <path d="M 22 17 H 23 V 18 H 22 V 17 Z" style="fill: rgba(20,18,20,0.5);"/>
    <path d="M 22 18 H 23 V 19 H 22 V 18 Z" style="fill: #131114;"/>
    <path d="M 22 19 H 23 V 20 H 22 V 19 Z" style="fill: #dc802e;"/>
    <path d="M 22 20 H 23 V 21 H 22 V 20 Z" style="fill: #dc802e;"/>
    <path d="M 22 21 H 23 V 22 H 22 V 21 Z" style="fill: #dc802e;"/>
    <path d="M 22 22 H 23 V 23 H 22 V 22 Z" style="fill: #dc802e;"/>
    <path d="M 22 23 H 23 V 24 H 22 V 23 Z" style="fill: #131114;"/>
    <path d="M 22 24 H 23 V 25 H 22 V 24 Z" style="fill: rgba(20,18,20,0.5);"/>
    <path d="M 23 15 H 24 V 16 H 23 V 15 Z" style="fill: rgba(20,18,20,0.5);"/>
    <path d="M 23 16 H 24 V 17 H 23 V 16 Z" style="fill: rgba(20,18,20,0.5);"/>
    <path d="M 23 17 H 24 V 18 H 23 V 17 Z" style="fill: #131114;"/>
    <path d="M 23 18 H 24 V 19 H 23 V 18 Z" style="fill: #ecceb1;"/>
    <path d="M 23 19 H 24 V 20 H 23 V 19 Z" style="fill: #ecceb1;"/>
    <path d="M 23 20 H 24 V 21 H 23 V 20 Z" style="fill: #dc802e;"/>
    <path d="M 23 21 H 24 V 22 H 23 V 21 Z" style="fill: #dc802e;"/>
    <path d="M 23 22 H 24 V 23 H 23 V 22 Z" style="fill: #131114;"/>
    <path d="M 23 23 H 24 V 24 H 23 V 23 Z" style="fill: rgba(20,18,20,0.5);"/>
    <path d="M 23 24 H 24 V 25 H 23 V 24 Z" style="fill: rgba(20,18,20,0.5);"/>
    <path d="M 24 15 H 25 V 16 H 24 V 15 Z" style="fill: rgba(20,18,20,0.5);"/>
    <path d="M 24 16 H 25 V 17 H 24 V 16 Z" style="fill: rgba(20,18,20,0.5);"/>
    <path d="M 24 17 H 25 V 18 H 24 V 17 Z" style="fill: #131114;"/>
    <path d="M 24 18 H 25 V 19 H 24 V 18 Z" style="fill: #ecceb1;"/>
    <path d="M 24 19 H 25 V 20 H 24 V 19 Z" style="fill: #ecceb1;"/>
    <path d="M 24 20 H 25 V 21 H 24 V 20 Z" style="fill: #ecceb1;"/>
    <path d="M 24 21 H 25 V 22 H 24 V 21 Z" style="fill: #131114;"/>
    <path d="M 24 22 H 25 V 23 H 24 V 22 Z" style="fill: rgba(20,18,20,0.5);"/>
    <path d="M 24 23 H 25 V 24 H 24 V 23 Z" style="fill: rgba(20,18,20,0.5);"/>
    <path d="M 25 15 H 26 V 16 H 25 V 15 Z" style="fill: rgba(20,18,20,0.5);"/>
    <path d="M 25 16 H 26 V 17 H 25 V 16 Z" style="fill: rgba(20,18,20,0.5);"/>
    <path d="M 25 17 H 26 V 18 H 25 V 17 Z" style="fill: rgba(20,18,20,0.5);"/>
    <path d="M 25 18 H 26 V 19 H 25 V 18 Z" style="fill: #131114;"/>
    <path d="M 25 19 H 26 V 20 H 25 V 19 Z" style="fill: #131114;"/>
    <path d="M 25 20 H 26 V 21 H 25 V 20 Z" style="fill: #131114;"/>
    <path d="M 25 21 H 26 V 22 H 25 V 21 Z" style="fill: rgba(20,18,20,0.5);"/>
    <path d="M 25 22 H 26 V 23 H 25 V 22 Z" style="fill: rgba(20,18,20,0.5);"/>
    <path d="M 26 15 H 27 V 16 H 26 V 15 Z" style="fill: rgba(20,18,20,0.5);"/>
    <path d="M 26 16 H 27 V 17 H 26 V 16 Z" style="fill: rgba(20,18,20,0.5);"/>
    <path d="M 26 17 H 27 V 18 H 26 V 17 Z" style="fill: rgba(20,18,20,0.5);"/>
    <path d="M 26 18 H 27 V 19 H 26 V 18 Z" style="fill: rgba(20,18,20,0.5);"/>
    <path d="M 26 19 H 27 V 20 H 26 V 19 Z" style="fill: rgba(20,18,20,0.5);"/>
    <path d="M 26 20 H 27 V 21 H 26 V 20 Z" style="fill: rgba(20,18,20,0.5);"/>
    <path d="M 26 21 H 27 V 22 H 26 V 21 Z" style="fill: rgba(20,18,20,0.5);"/>
    <path d="M 26 22 H 27 V 23 H 26 V 22 Z" style="fill: rgba(20,18,20,0.5);"/>
    <path d="M 27 16 H 28 V 17 H 27 V 16 Z" style="fill: rgba(20,18,20,0.5);"/>
    <path d="M 27 17 H 28 V 18 H 27 V 17 Z" style="fill: rgba(20,18,20,0.5);"/>
    <path d="M 27 18 H 28 V 19 H 27 V 18 Z" style="fill: rgba(20,18,20,0.5);"/>
    <path d="M 27 19 H 28 V 20 H 27 V 19 Z" style="fill: rgba(20,18,20,0.5);"/>
    <path d="M 27 20 H 28 V 21 H 27 V 20 Z" style="fill: rgba(20,18,20,0.5);"/>
    <path d="M 27 21 H 28 V 22 H 27 V 21 Z" style="fill: rgba(20,18,20,0.5);"/>
    <path d="M 28 17 H 29 V 18 H 28 V 17 Z" style="fill: rgba(20,18,20,0.5);"/>
    <path d="M 28 18 H 29 V 19 H 28 V 18 Z" style="fill: rgba(20,18,20,0.5);"/>
    <path d="M 28 19 H 29 V 20 H 28 V 19 Z" style="fill: rgba(20,18,20,0.5);"/>
  </g>
</svg>